<?xml version="1.0" encoding="UTF-8" standalone="no"?>
<svg
   xmlns:dc="http://purl.org/dc/elements/1.1/"
   xmlns:cc="http://creativecommons.org/ns#"
   xmlns:rdf="http://www.w3.org/1999/02/22-rdf-syntax-ns#"
   xmlns:svg="http://www.w3.org/2000/svg"
   xmlns="http://www.w3.org/2000/svg"
   xmlns:sodipodi="http://sodipodi.sourceforge.net/DTD/sodipodi-0.dtd"
   xmlns:inkscape="http://www.inkscape.org/namespaces/inkscape"
   version="1.1"
   viewBox="0.0 0.0 348.0 348.0"
   fill="none"
   stroke="none"
   stroke-linecap="square"
   stroke-miterlimit="10"
   id="svg22"
   sodipodi:docname="WireComponent-snipped.svg"
   inkscape:version="0.92.2 5c3e80d, 2017-08-06">
  <metadata
     id="metadata28">
    <rdf:RDF>
      <cc:Work
         rdf:about="">
        <dc:format>image/svg+xml</dc:format>
        <dc:type
           rdf:resource="http://purl.org/dc/dcmitype/StillImage" />
      </cc:Work>
    </rdf:RDF>
  </metadata>
  <defs
     id="defs26" />
  <sodipodi:namedview
     pagecolor="#ffffff"
     bordercolor="#666666"
     borderopacity="1"
     objecttolerance="10"
     gridtolerance="10"
     guidetolerance="10"
     inkscape:pageopacity="0"
     inkscape:pageshadow="2"
     inkscape:window-width="1364"
     inkscape:window-height="726"
     id="namedview24"
     showgrid="false"
     inkscape:snap-midpoints="true"
     inkscape:snap-intersection-paths="true"
     inkscape:zoom="1.9181287"
     inkscape:cx="184.44887"
     inkscape:cy="184.622"
     inkscape:window-x="0"
     inkscape:window-y="20"
     inkscape:window-maximized="0"
     inkscape:current-layer="svg22" />
  <path
     stroke="#000000"
     stroke-width="2.0"
     stroke-linejoin="round"
     stroke-linecap="butt"
     d="m5.07874 5.7758217l336.9134 0l0 337.66928l-336.9134 0z"
     fill-rule="nonzero"
     id="path2" />
  <path
     stroke="#000000"
     stroke-width="2.0"
     stroke-linejoin="round"
     stroke-linecap="butt"
     d="m282.73444 40.553925l0 0c0 -8.375591 6.966034 -15.165352 15.5590515 -15.165352l0 0c4.126526 0 8.084015 1.5977726 11.001923 4.441828c2.9178772 2.844057 4.557129 6.7014217 4.557129 10.723524l0 0c0 8.375595 -6.9660034 15.165356 -15.5590515 15.165356l0 0c-8.593018 0 -15.5590515 -6.7897606 -15.5590515 -15.165356z"
     fill-rule="nonzero"
     fill="#00ff00"
     id="path4" />
  <path
     stroke="#000000"
     stroke-width="2.0"
     stroke-linejoin="round"
     stroke-linecap="butt"
     d="m47.026245 61.745407l29.16536 0l0 225.73228l-29.16536 0z"
     fill-rule="nonzero"
     id="path6" />
  <path
     stroke="#000000"
     stroke-width="2.0"
     stroke-linejoin="round"
     stroke-linecap="butt"
     d="m257.56955 106.58793l29.165344 0l0 178.20474l-29.165344 0z"
     fill-rule="nonzero"
     id="path8" />
  <path
     d="m 61.6063,94.05481 c 10.847099,-2.326851 19.528023,12.06249 30.566925,13.16535 24.493225,2.44705 49.259255,-2.85347 73.832015,-1.40944 m 31.50919,15.51968 c 25.01134,6.10133 50.6969,9.06036 76.18372,12.69554"
     id="path10"
     inkscape:connector-curvature="0"
     style="fill-rule:evenodd;stroke:#ff00ff;stroke-width:6;stroke-linecap:butt;stroke-linejoin:round"
     sodipodi:nodetypes="csccc" />
  <path
     d="m 65.367455,130.26443 c 24.469223,-11.1235 52.597985,13.95001 79.475055,13.63779 m 28.62511,-2.34009 c 2.00485,-0.20692 4.0081,-0.40283 6.00753,-0.57505 12.79067,-1.10178 25.42493,-1.23466 37.32012,2.91514 18.92751,6.60312 43.66769,30.63415 57.84252,16.45932"
     id="path12"
     inkscape:connector-curvature="0"
     style="fill-rule:evenodd;stroke:#ffff00;stroke-width:6;stroke-linecap:butt;stroke-linejoin:round"
     sodipodi:nodetypes="ccsscc" />
  <path
     d="m 62.076115,163.18391 c 13.594257,-1.78246 28.332623,-9.68385 40.913385,-4.2336 8.54524,3.70198 7.23016,21.33053 16.45932,22.57482 17.9474,2.41969 36.0924,1.41322 54.23454,-0.35645 m 37.46888,-3.87715 c 21.87036,-1.88567 43.41594,7.99475 65.36745,7.99475"
     id="path14"
     inkscape:connector-curvature="0"
     style="fill-rule:evenodd;stroke:#00ffff;stroke-width:6;stroke-linecap:butt;stroke-linejoin:round"
     sodipodi:nodetypes="cssccc" />
  <path
     d="m 61.133858,190.4596 c 14.410118,-0.97379 29.280548,-5.96175 43.265092,-2.3517 m 32.92125,10.81627 c 22.41312,2.53026 45.28653,2.37721 67.24672,7.52493 11.84263,2.77605 21.62682,5.8235 29.15749,6.11287 13.79222,0.52995 29.04027,-7.58667 41.38319,-1.40945"
     id="path16"
     inkscape:connector-curvature="0"
     style="fill-rule:evenodd;stroke:#0000ff;stroke-width:6;stroke-linecap:butt;stroke-linejoin:round"
     sodipodi:nodetypes="cccscc" />
  <path
     d="m 66.30708,227.61273 c 46.12608,-8.54257 94.69835,5.85767 139.2021,20.69028 m 25.39371,-12.22573 c 14.25708,-1.05497 28.4992,2.82154 42.79525,2.82154"
     id="path18"
     inkscape:connector-curvature="0"
     style="fill-rule:evenodd;stroke:#00ff00;stroke-width:6;stroke-linecap:butt;stroke-linejoin:round"
     sodipodi:nodetypes="cccc" />
  <path
     d="m 61.133858,262.41208 c 9.028687,12.40341 31.701561,12.5726 45.616802,6.11285 10.12317,-4.6994 17.99669,-16.45932 29.15748,-16.45932 m 26.80577,4.70081 c 6.32174,2.4581 4.52399,16.40192 11.28609,16.93173 32.74596,2.5658 66.42221,0.91828 98.2861,-7.05511"
     id="path20"
     inkscape:connector-curvature="0"
     style="fill-rule:evenodd;stroke:#ff0000;stroke-width:6;stroke-linecap:butt;stroke-linejoin:round"
     sodipodi:nodetypes="cscccc" />
</svg>
